<mxfile host="app.diagrams.net" agent="Mozilla/5.0 (Windows NT 10.0; Win64; x64) AppleWebKit/537.36 (KHTML, like Gecko) Chrome/130.0.0.0 Safari/537.36" version="25.0.1">
  <diagram name="Trang-1" id="2qvrxf-kG60DjmsD-Co_">
    <mxGraphModel dx="1184" dy="625" grid="0" gridSize="10" guides="1" tooltips="1" connect="1" arrows="1" fold="1" page="1" pageScale="1" pageWidth="1654" pageHeight="2336" math="0" shadow="0">
      <root>
        <mxCell id="0" />
        <mxCell id="1" parent="0" />
        <mxCell id="E20ENYCL96-S8LI9J4n8-28" style="edgeStyle=orthogonalEdgeStyle;rounded=0;orthogonalLoop=1;jettySize=auto;html=1;exitX=0.5;exitY=1;exitDx=0;exitDy=0;" edge="1" parent="1" source="E20ENYCL96-S8LI9J4n8-3">
          <mxGeometry relative="1" as="geometry">
            <mxPoint x="610" y="357.20001220703125" as="targetPoint" />
          </mxGeometry>
        </mxCell>
        <mxCell id="E20ENYCL96-S8LI9J4n8-3" value="" style="triangle;whiteSpace=wrap;html=1;" vertex="1" parent="1">
          <mxGeometry x="560" y="200" width="100" height="120" as="geometry" />
        </mxCell>
        <mxCell id="E20ENYCL96-S8LI9J4n8-4" value="" style="endArrow=none;html=1;rounded=0;entryX=-0.003;entryY=0.343;entryDx=0;entryDy=0;entryPerimeter=0;" edge="1" parent="1" target="E20ENYCL96-S8LI9J4n8-3">
          <mxGeometry width="50" height="50" relative="1" as="geometry">
            <mxPoint x="330" y="240" as="sourcePoint" />
            <mxPoint x="553.5" y="241.16000000000003" as="targetPoint" />
          </mxGeometry>
        </mxCell>
        <mxCell id="E20ENYCL96-S8LI9J4n8-5" value="" style="endArrow=none;html=1;rounded=0;entryX=0;entryY=0.5;entryDx=0;entryDy=0;entryPerimeter=0;exitX=-0.007;exitY=0.703;exitDx=0;exitDy=0;exitPerimeter=0;" edge="1" parent="1" source="E20ENYCL96-S8LI9J4n8-3" target="E20ENYCL96-S8LI9J4n8-11">
          <mxGeometry width="50" height="50" relative="1" as="geometry">
            <mxPoint x="457.5" y="560" as="sourcePoint" />
            <mxPoint x="440" y="320" as="targetPoint" />
          </mxGeometry>
        </mxCell>
        <mxCell id="E20ENYCL96-S8LI9J4n8-7" value="" style="endArrow=classic;html=1;rounded=0;exitX=0.5;exitY=0;exitDx=0;exitDy=0;" edge="1" parent="1">
          <mxGeometry width="50" height="50" relative="1" as="geometry">
            <mxPoint x="609.86" y="230" as="sourcePoint" />
            <mxPoint x="610" y="170" as="targetPoint" />
            <Array as="points">
              <mxPoint x="609.86" y="190" />
            </Array>
          </mxGeometry>
        </mxCell>
        <mxCell id="E20ENYCL96-S8LI9J4n8-11" value="" style="pointerEvents=1;verticalLabelPosition=bottom;shadow=0;dashed=0;align=center;html=1;verticalAlign=top;shape=mxgraph.electrical.resistors.resistor_2;direction=west;" vertex="1" parent="1">
          <mxGeometry x="398" y="280" width="50" height="10" as="geometry" />
        </mxCell>
        <mxCell id="E20ENYCL96-S8LI9J4n8-20" style="edgeStyle=orthogonalEdgeStyle;rounded=0;orthogonalLoop=1;jettySize=auto;html=1;exitX=1;exitY=0.5;exitDx=0;exitDy=0;exitPerimeter=0;endArrow=none;endFill=0;" edge="1" parent="1" source="E20ENYCL96-S8LI9J4n8-12">
          <mxGeometry relative="1" as="geometry">
            <mxPoint x="479" y="285" as="targetPoint" />
          </mxGeometry>
        </mxCell>
        <mxCell id="E20ENYCL96-S8LI9J4n8-12" value="" style="pointerEvents=1;verticalLabelPosition=bottom;shadow=0;dashed=0;align=center;html=1;verticalAlign=top;shape=mxgraph.electrical.resistors.resistor_2;direction=west;" vertex="1" parent="1">
          <mxGeometry x="574" y="402" width="50" height="10" as="geometry" />
        </mxCell>
        <mxCell id="E20ENYCL96-S8LI9J4n8-13" style="edgeStyle=orthogonalEdgeStyle;rounded=0;orthogonalLoop=1;jettySize=auto;html=1;exitX=1;exitY=0.5;exitDx=0;exitDy=0;entryX=0;entryY=0.5;entryDx=0;entryDy=0;entryPerimeter=0;endArrow=none;endFill=0;" edge="1" parent="1" source="E20ENYCL96-S8LI9J4n8-3" target="E20ENYCL96-S8LI9J4n8-12">
          <mxGeometry relative="1" as="geometry">
            <Array as="points">
              <mxPoint x="720" y="260" />
              <mxPoint x="720" y="407" />
            </Array>
          </mxGeometry>
        </mxCell>
        <mxCell id="E20ENYCL96-S8LI9J4n8-19" style="edgeStyle=orthogonalEdgeStyle;rounded=0;orthogonalLoop=1;jettySize=auto;html=1;exitX=1;exitY=0.5;exitDx=0;exitDy=0;exitPerimeter=0;entryX=1;entryY=0.5;entryDx=0;entryDy=0;entryPerimeter=0;endArrow=none;endFill=0;" edge="1" parent="1" source="E20ENYCL96-S8LI9J4n8-11">
          <mxGeometry relative="1" as="geometry">
            <mxPoint x="330" y="285" as="targetPoint" />
          </mxGeometry>
        </mxCell>
        <mxCell id="E20ENYCL96-S8LI9J4n8-23" value="Vin" style="text;html=1;align=center;verticalAlign=middle;whiteSpace=wrap;rounded=0;fontStyle=1" vertex="1" parent="1">
          <mxGeometry x="310" y="211" width="60" height="30" as="geometry" />
        </mxCell>
        <mxCell id="E20ENYCL96-S8LI9J4n8-24" value="&lt;b&gt;Vref&lt;/b&gt;" style="text;html=1;align=center;verticalAlign=middle;whiteSpace=wrap;rounded=0;" vertex="1" parent="1">
          <mxGeometry x="310" y="260" width="60" height="30" as="geometry" />
        </mxCell>
        <mxCell id="E20ENYCL96-S8LI9J4n8-25" value="R2" style="text;html=1;align=center;verticalAlign=middle;whiteSpace=wrap;rounded=0;fontStyle=1" vertex="1" parent="1">
          <mxGeometry x="569" y="422" width="60" height="30" as="geometry" />
        </mxCell>
        <mxCell id="E20ENYCL96-S8LI9J4n8-26" value="R1" style="text;html=1;align=center;verticalAlign=middle;whiteSpace=wrap;rounded=0;fontStyle=1" vertex="1" parent="1">
          <mxGeometry x="393" y="295" width="60" height="30" as="geometry" />
        </mxCell>
        <mxCell id="E20ENYCL96-S8LI9J4n8-27" value="V&lt;sub&gt;OUT&lt;/sub&gt;" style="text;html=1;align=center;verticalAlign=middle;whiteSpace=wrap;rounded=0;fontStyle=1" vertex="1" parent="1">
          <mxGeometry x="684" y="236" width="60" height="30" as="geometry" />
        </mxCell>
        <mxCell id="E20ENYCL96-S8LI9J4n8-29" value="VCC" style="text;html=1;align=center;verticalAlign=middle;whiteSpace=wrap;rounded=0;fontStyle=1" vertex="1" parent="1">
          <mxGeometry x="608" y="162" width="60" height="30" as="geometry" />
        </mxCell>
        <mxCell id="E20ENYCL96-S8LI9J4n8-31" value="VEE" style="text;html=1;align=center;verticalAlign=middle;whiteSpace=wrap;rounded=0;fontStyle=1" vertex="1" parent="1">
          <mxGeometry x="608" y="335" width="60" height="30" as="geometry" />
        </mxCell>
      </root>
    </mxGraphModel>
  </diagram>
</mxfile>
